<svg xmlns="http://www.w3.org/2000/svg" xml:space="preserve" viewBox="0 0 422 422" font-family="Helvetica" font-weight="100">
   <defs>
    <linearGradient id="a" x1="50%" y1="0" x2="50%" y2="100%">
      <stop offset="0" stop-color="#334" />
      <stop offset="1" stop-color="#001" />
    </linearGradient>
  </defs>
  <rect x="0" y="0" width="100%" height="100%" rx="10%" fill="url(#a)"/>

  <g fill="#fff" stroke-linecap="round" stroke-linejoin="round" transform="rotate(-35) translate(-140,220)">
    <path d="M113 64h2v46h-2z"/>
    <path d="m154 133-1-2 40-23 1 2z"/>
    <path d="m193 65-40-23 1-2 40 23z"/>
    <path d="m303 56-49-28h-1l-50 28-49-28h-1l-49 28-34-19-2 2 34 20v56l-31 18 1 2 31-18 48 27 2 1v1l1-1 2-1 46-27 2-1V59l48-28 1-1 1 1 47 27 1 1h2l33-19-1-2-33 18zm-101 59h-1l-46 27-2 1-48-28V59l47-28 1-1 2 1 47 28v56z"/>
    <text x="340" y="44"  font-size="40" fill="#fff">NH2</text>
    <text x="10" y="43" font-size="40" fill="#fff">HO</text>
    <text x="10" y="158" font-size="40" fill="#fff">HO</text>
  </g>
</svg>
